<?xml version="1.0" encoding="UTF-8" standalone="no"?>
<!-- Generator: Adobe Illustrator 27.1.1, SVG Export Plug-In . SVG Version: 6.00 Build 0)  -->

<svg
   version="1.1"
   id="Layer_1"
   x="0px"
   y="0px"
   viewBox="0 0 1236.8032 212.16457"
   xml:space="preserve"
   sodipodi:docname="FydeLogo.svg"
   width="1236.8032"
   height="212.16457"
   inkscape:version="1.3-dev (74adff3496, 2022-05-26)"
   xmlns:inkscape="http://www.inkscape.org/namespaces/inkscape"
   xmlns:sodipodi="http://sodipodi.sourceforge.net/DTD/sodipodi-0.dtd"
   xmlns="http://www.w3.org/2000/svg"
   xmlns:svg="http://www.w3.org/2000/svg"><defs
   id="defs16" /><sodipodi:namedview
   id="namedview16"
   pagecolor="#ffffff"
   bordercolor="#666666"
   borderopacity="1.0"
   inkscape:showpageshadow="2"
   inkscape:pageopacity="0.0"
   inkscape:pagecheckerboard="0"
   inkscape:deskcolor="#d1d1d1"
   showgrid="false"
   inkscape:zoom="0.68095878"
   inkscape:cx="777.58011"
   inkscape:cy="337.75907"
   inkscape:window-width="1995"
   inkscape:window-height="1192"
   inkscape:window-x="0"
   inkscape:window-y="0"
   inkscape:window-maximized="1"
   inkscape:current-layer="Layer_1" />
<style
   type="text/css"
   id="style1">
	.st0{fill:#FFFFFF;}
	.st1{fill:url(#SVGID_1_);}
	.st2{fill:url(#SVGID_00000098192172784020952940000013889228200317694119_);}
	.st3{fill:url(#SVGID_00000029729389852678282800000005654377097872990090_);}
</style>
<g
   id="g16"
   transform="matrix(0.2248973,0,0,0.2248973,25.727312,3.486216)">
	<g
   id="g11">
		<linearGradient
   id="SVGID_1_"
   gradientUnits="userSpaceOnUse"
   x1="432.93631"
   y1="655.22369"
   x2="543.26721"
   y2="364.63379">
			<stop
   offset="0"
   style="stop-color:#A866FF"
   id="stop1" />
			<stop
   offset="8.149239e-02"
   style="stop-color:#A467FF"
   id="stop2" />
			<stop
   offset="0.1593"
   style="stop-color:#996AFF"
   id="stop3" />
			<stop
   offset="0.2356"
   style="stop-color:#856EFF"
   id="stop4" />
			<stop
   offset="0.311"
   style="stop-color:#6A75FF"
   id="stop5" />
			<stop
   offset="0.3858"
   style="stop-color:#487EFF"
   id="stop6" />
			<stop
   offset="0.459"
   style="stop-color:#1D88FF"
   id="stop7" />
			<stop
   offset="0.5035"
   style="stop-color:#008FFF"
   id="stop8" />
			<stop
   offset="0.6335"
   style="stop-color:#00A7FF"
   id="stop9" />
			<stop
   offset="0.8746"
   style="stop-color:#00CFFE"
   id="stop10" />
			<stop
   offset="1"
   style="stop-color:#00DEFE"
   id="stop11" />
		</linearGradient>
		<path
   class="st1"
   d="m 583.1,366 -36.2,-19.7 c -0.1,-0.1 -0.2,-0.1 -0.3,-0.1 -0.1,0 -0.2,-0.1 -0.3,-0.1 -0.1,0 -0.3,0 -0.4,-0.1 -0.1,0 -0.2,0 -0.4,0 -0.1,0 -0.3,0 -0.4,0 -0.1,0 -0.2,0 -0.4,0.1 -0.1,0 -0.2,0.1 -0.4,0.1 -0.1,0 -0.2,0.1 -0.3,0.1 l -143,79.1 c -0.9,0.5 -1.5,1.5 -1.5,2.5 v 86.8 c 0,1 0.6,2 1.4,2.5 0,0 0.1,0 0.1,0 l 35.7,20.4 -35.8,21.7 c -0.9,0.5 -1.4,1.5 -1.4,2.5 v 93.5 c 0,0.1 0,0.2 0,0.4 0,0.1 0,0.2 0,0.3 0,0.1 0.1,0.3 0.2,0.4 0,0.1 0.1,0.2 0.1,0.3 0.1,0.1 0.2,0.2 0.3,0.4 0.1,0.1 0.1,0.2 0.2,0.2 0.1,0.1 0.3,0.2 0.4,0.3 0.1,0 0.1,0.1 0.2,0.2 v 0 c 0,0 0,0 0,0 0,0 0,0 0,0 l 36.4,22.4 c 0.5,0.3 1,0.4 1.5,0.4 0.5,0 1,-0.1 1.5,-0.4 l 36.5,-22.1 0.5,-0.3 c 0.5,-0.3 0.8,-0.6 1.1,-1.1 0,0 0,0 0,0 0.1,-0.2 0.2,-0.4 0.3,-0.6 0,-0.1 0,-0.2 0.1,-0.4 0,-0.1 0,-0.2 0.1,-0.3 0,0 0,0 0,-0.1 0,0 0,-0.1 0,-0.1 v -93.5 l 64,36.6 c 0,0 0,0 0,0 0.4,0.3 0.9,0.4 1.4,0.4 0.3,0 0.5,0 0.8,-0.1 0.1,0 0.2,-0.1 0.2,-0.1 0.1,-0.1 0.3,-0.1 0.4,-0.2 0,0 0,0 0,0 0,0 0,0 0,0 l 36.4,-22.1 c 0.9,-0.5 1.4,-1.5 1.4,-2.5 v -43.9 c 0,0 0,0 0,0 0,0 0,0 0,0 0,-0.2 0,-0.3 -0.1,-0.5 0,-0.1 0,-0.2 0,-0.3 -0.1,-0.2 -0.1,-0.4 -0.2,-0.6 0,0 0,-0.1 -0.1,-0.1 -0.1,-0.2 -0.3,-0.4 -0.5,-0.6 0,0 -0.1,-0.1 -0.1,-0.1 -0.1,-0.1 -0.3,-0.3 -0.5,-0.4 L 485.1,471.5 583,415.4 c 0,0 0,0 0,0 0,0 0,0 0,0 0.1,-0.1 0.2,-0.2 0.3,-0.3 0.1,-0.1 0.2,-0.1 0.2,-0.2 0.1,-0.1 0.3,-0.3 0.4,-0.5 0,0 0.1,-0.1 0.1,-0.1 0.1,-0.2 0.2,-0.5 0.3,-0.7 0,-0.1 0,-0.2 0,-0.2 0,-0.2 0.1,-0.3 0.1,-0.5 v -44.4 c 0.2,-1 -0.4,-2 -1.3,-2.5 z m -4.3,42.1 -19.6,-10.7 -10.8,-5.9 v -37.8 l 30.4,16.5 z m -36.3,-54.3 v 37.7 l -101.7,56.2 c 0,0 0,0 0,0 0,0 0,0 0,0 0,0 0,0 -0.1,0 -0.2,0.1 -0.3,0.2 -0.5,0.3 0,0 0,0 -0.1,0 0,0 0,0 0,0 0,0 0,0 0,0 0,0 0,0 0,0 -0.1,0.1 -0.3,0.3 -0.4,0.5 0,0 0,0 0,0.1 0,0 0,0 0,0 0,0 0,0.1 -0.1,0.1 -0.1,0.1 -0.1,0.3 -0.2,0.4 0,0 0,0.1 0,0.1 0,0 0,0 0,0 0,0 0,0.1 0,0.1 0,0.2 -0.1,0.4 -0.1,0.6 0,0 0,0 0,0.1 0,0 0,0 0,0 0,0 0,0 0,0 v 40.8 l -15.3,8.4 -18.8,10.3 V 429.3 Z M 409,514.4 l 33.2,-18.3 1.2,0.7 98.6,56.4 -0.6,37.7 -64.1,-36.6 c 0,0 0,0 -0.1,0 v 0 c 0,0 0,0 0,0 h -0.1 l -68.9,-39.4 z m 64,44.1 v 91.6 l -27.8,-17.4 v -90 z m -33.6,-15.6 v 89.7 l -33.6,17.7 -0.5,0.3 v -87 z m -0.6,131.5 -30.6,-18.8 33.9,-17.9 28.2,17.6 z m 139,-102.3 -30.5,18.6 0.6,-37.5 30,-18.2 v 37.1 z m -32.9,-23.9 -99.7,-57 v -5 l -0.1,-30.8 32.8,18.8 c 0,0 0,0 0,0 l 97,55.7 z m -65.5,-79.9 -3.2,-1.8 -28,-16.1 97.2,-53.8 30.3,16.5 z"
   id="path11"
   style="fill:url(#SVGID_1_)" />
	</g>
	<g
   id="g15">
		<path
   d="M 711.1,652.5 V 400.1 H 873.7 V 432 H 750.4 v 74.9 h 102.2 v 31.5 H 750.4 v 114.1 z"
   id="path12" />
		<path
   d="m 932.3,734 44.1,-96.7 H 965.7 L 893,468.8 h 42.6 l 56.3,136 58.9,-136 h 41.5 L 973.8,734 Z"
   id="path13" />
		<path
   d="m 1191.6,657 c -17.8,0 -33.5,-4.2 -47,-12.6 -13.6,-8.4 -24.2,-19.9 -31.9,-34.5 -7.7,-14.6 -11.5,-31.1 -11.5,-49.6 0,-18.5 3.8,-35 11.5,-49.5 7.6,-14.4 18.3,-25.8 32,-34.1 13.7,-8.3 29.5,-12.4 47.2,-12.4 14.6,0 27.3,2.8 38.3,8.5 11,5.7 19.6,13.7 25.7,24.1 v -96.8 h 39.3 V 652.5 H 1260 l -4,-28.5 c -5.9,8.6 -14.1,16.3 -24.5,23 -10.3,6.6 -23.6,10 -39.9,10 z m 7,-34.1 c 16.8,0 30.6,-5.8 41.3,-17.4 10.7,-11.6 16.1,-26.5 16.1,-44.8 0,-18.5 -5.4,-33.5 -16.1,-45 -10.7,-11.5 -24.5,-17.2 -41.3,-17.2 -16.8,0 -30.6,5.7 -41.5,17.2 -10.9,11.5 -16.3,26.5 -16.3,45 0,12.1 2.5,22.8 7.4,32.2 4.9,9.4 11.8,16.7 20.6,22 8.8,5.3 18.7,8 29.8,8 z"
   id="path14" />
		<path
   d="m 1430.9,657 c -18,0 -34,-4 -48,-12 -14,-8 -24.9,-19.2 -32.8,-33.5 -7.9,-14.3 -11.9,-31 -11.9,-50 0,-19.3 3.9,-36.2 11.7,-50.7 7.8,-14.6 18.6,-25.9 32.6,-34.1 13.9,-8.2 30.2,-12.2 48.7,-12.2 18,0 33.7,4 47,12 13.3,8 23.7,18.7 31.1,32 7.4,13.3 11.1,28 11.1,44.1 0,2.5 -0.1,5.1 -0.2,8 -0.1,2.8 -0.3,6 -0.6,9.4 h -143 c 1.2,17.8 7.1,31.3 17.6,40.6 10.5,9.3 22.7,13.9 36.5,13.9 11.1,0 20.4,-2.5 28,-7.6 7.5,-5.1 13.2,-11.9 16.9,-20.6 h 39.3 c -4.9,17.3 -14.8,31.7 -29.4,43.3 -14.7,11.6 -32.9,17.4 -54.6,17.4 z m 0,-160.4 c -13.1,0 -24.7,3.9 -34.8,11.7 -10.1,7.8 -16.3,19.4 -18.5,35 h 103.7 c -0.7,-14.3 -5.8,-25.7 -15.2,-34.1 -9.4,-8.4 -21.1,-12.6 -35.2,-12.6 z"
   id="path15" />
	</g>
</g>
</svg>
